<?xml version="1.0" standalone="no"?>
<!DOCTYPE svg PUBLIC "-//W3C//DTD SVG 20010904//EN"
 "http://www.w3.org/TR/2001/REC-SVG-20010904/DTD/svg10.dtd">
<svg version="1.0" xmlns="http://www.w3.org/2000/svg"
 width="854.000000pt" height="854.000000pt" viewBox="0 0 854.000000 854.000000"
 preserveAspectRatio="xMidYMid meet">
<metadata>
Created by potrace 1.11, written by Peter Selinger 2001-2013
</metadata>
<g transform="translate(0.000000,854.000000) scale(0.100000,-0.100000)"
fill="#000000" stroke="none">
<path d="M0 4270 l0 -4270 4270 0 4270 0 0 4270 0 4270 -4270 0 -4270 0 0
-4270z m4716 4170 c142 -15 388 -55 489 -79 561 -131 1098 -379 1556 -718 118
-86 367 -294 368 -305 1 -5 -1286 -8 -2859 -8 -1573 0 -2860 2 -2860 5 0 8 80
78 200 177 668 547 1482 875 2325 938 263 19 549 16 781 -10z m2588 -1277
c618 -638 1013 -1473 1132 -2393 22 -170 30 -665 15 -841 -62 -685 -260 -1286
-612 -1861 -440 -719 -1118 -1306 -1900 -1646 -383 -167 -770 -269 -1224 -324
-148 -18 -783 -18 -915 0 -549 76 -972 202 -1421 427 -839 420 -1552 1166
-1931 2019 -177 399 -280 763 -339 1201 -26 198 -37 633 -20 852 73 941 477
1857 1123 2541 l68 72 0 -2930 c0 -2337 3 -2930 13 -2930 6 0 1340 1330 2962
2954 1623 1624 2951 2954 2952 2955 1 0 45 -43 97 -96z m-686 -130 c-1 -5
-1135 -1140 -2520 -2523 l-2518 -2515 0 2518 0 2517 2513 3 c1381 1 2515 3
2520 5 4 1 6 -1 5 -5z m-198 -313 c0 -5 -2 -10 -4 -10 -3 0 -8 5 -11 10 -3 6
-1 10 4 10 6 0 11 -4 11 -10z m-5080 -1060 c0 -5 -5 -10 -11 -10 -5 0 -7 5 -4
10 3 6 8 10 11 10 2 0 4 -4 4 -10z"/>
<path d="M6340 3868 c-51 -90 -119 -206 -150 -258 -31 -52 -72 -124 -90 -160
-19 -36 -45 -80 -59 -98 -13 -18 -21 -35 -19 -38 3 -3 65 -6 137 -7 99 -1 131
1 131 11 0 6 -4 12 -10 12 -5 0 -21 22 -35 50 -28 55 -33 130 -13 177 22 49
85 108 135 126 62 22 94 22 147 -2 91 -42 142 -127 134 -225 -13 -155 -168
-234 -526 -267 -72 -7 -130 -15 -127 -17 6 -6 927 -3 933 3 3 3 -7 23 -22 45
-14 22 -26 41 -26 44 0 2 -42 75 -93 163 -52 87 -122 209 -158 271 -35 62 -81
141 -101 175 -20 34 -48 83 -63 110 -14 26 -27 47 -29 47 -2 0 -45 -73 -96
-162z m-250 -508 c0 -5 -2 -10 -4 -10 -3 0 -8 5 -11 10 -3 6 -1 10 4 10 6 0
11 -4 11 -10z"/>
<path d="M7034 3990 c-12 -5 -31 -22 -43 -38 -20 -29 -21 -39 -21 -377 0 -243
3 -353 12 -368 28 -53 20 -52 345 -55 349 -3 365 -1 383 68 13 49 3 113 -22
142 -19 22 -27 23 -245 28 l-225 5 1 242 c2 276 -4 314 -52 343 -33 21 -96 25
-133 10z m76 -230 c0 -5 -2 -10 -4 -10 -3 0 -8 5 -11 10 -3 6 -1 10 4 10 6 0
11 -4 11 -10z"/>
<path d="M4260 3970 c-77 -10 -114 -23 -158 -56 -100 -77 -108 -279 -14 -369
48 -45 108 -63 240 -70 131 -8 152 -12 152 -29 0 -21 -34 -26 -206 -26 -89 0
-175 -5 -192 -11 -36 -12 -62 -60 -62 -114 0 -27 8 -44 29 -66 l29 -29 208 0
c248 0 305 11 365 71 44 44 62 98 61 184 -1 76 -24 136 -68 175 -59 51 -97 62
-240 67 -142 6 -166 12 -145 36 10 13 49 16 213 19 196 3 200 3 219 27 13 16
19 39 19 78 0 61 -11 87 -41 104 -26 13 -322 20 -409 9z m175 -740 c-3 -5 -14
-10 -23 -9 -14 0 -13 2 3 9 27 11 27 11 20 0z m65 -4 c0 -2 -7 -7 -16 -10 -8
-3 -12 -2 -9 4 6 10 25 14 25 6z"/>
<path d="M4826 3973 c-59 -16 -75 -67 -76 -238 0 -190 15 -300 50 -371 63
-128 147 -170 329 -162 121 5 162 21 222 85 75 78 91 150 92 408 2 237 -1 249
-59 271 -37 14 -51 15 -83 6 -74 -23 -75 -28 -82 -271 -4 -119 -7 -217 -8
-218 -11 -19 -58 -54 -76 -59 -35 -9 -90 3 -107 24 -39 44 -43 65 -48 274 -5
191 -7 209 -25 228 -21 20 -93 33 -129 23z"/>
<path d="M5566 3971 c-77 -16 -76 -11 -76 -388 l0 -334 25 -24 c20 -21 34 -25
85 -25 51 0 65 4 85 25 l25 24 0 251 0 250 109 0 c83 0 111 -3 121 -15 20 -25
3 -32 -85 -37 -113 -6 -127 -19 -127 -112 1 -76 9 -90 59 -107 47 -15 195 -3
248 20 51 23 111 89 124 138 14 49 14 126 0 173 -15 48 -73 111 -129 141 -42
21 -58 23 -235 25 -104 2 -208 -1 -229 -5z"/>
<path d="M1773 5230 c-53 -21 -55 -35 -56 -372 -1 -172 1 -325 6 -340 9 -34
53 -58 107 -58 58 0 72 9 182 118 l98 96 110 -108 109 -108 67 4 c108 7 104
-9 104 383 0 298 -2 332 -18 351 -52 65 -172 57 -201 -14 -8 -19 -11 -79 -9
-180 2 -84 2 -152 1 -152 -2 0 -27 25 -56 55 -51 53 -55 55 -104 55 -44 0 -57
-5 -94 -36 -24 -20 -49 -43 -56 -52 -10 -14 -12 10 -13 130 0 168 -12 210 -63
228 -36 12 -84 12 -114 0z"/>
<path d="M2588 5223 c-14 -9 -31 -27 -37 -40 -7 -16 -11 -137 -11 -343 l0
-319 24 -28 24 -28 284 -3 c349 -4 358 -1 358 108 0 55 -9 75 -41 94 -24 14
-59 17 -224 18 l-195 2 0 59 0 59 28 -30 c35 -37 64 -43 214 -40 106 3 119 5
141 26 50 47 43 152 -12 185 -24 14 -54 17 -166 17 l-137 0 -29 -29 c-17 -17
-29 -40 -29 -55 0 -14 -5 -26 -11 -26 -7 0 -9 9 -5 23 3 12 6 48 6 79 l0 57
206 3 206 3 24 28 c18 22 24 40 24 78 0 115 -13 119 -347 119 -232 0 -272 -3
-295 -17z m192 -403 c0 -5 -4 -10 -10 -10 -5 0 -10 5 -10 10 0 6 5 10 10 10 6
0 10 -4 10 -10z m225 -280 c3 -6 -1 -7 -9 -4 -18 7 -21 14 -7 14 6 0 13 -4 16
-10z"/>
<path d="M3324 5224 c-17 -8 -36 -26 -43 -40 -16 -37 -15 -641 2 -677 19 -42
54 -48 282 -46 189 1 214 3 253 21 47 23 107 85 128 135 20 45 18 168 -2 202
-15 25 -15 30 0 59 26 50 21 157 -9 218 -28 56 -88 110 -144 130 -56 20 -426
19 -467 -2z m404 -236 c-3 -20 -10 -24 -63 -29 -33 -3 -67 -9 -76 -13 -24 -10
-39 -51 -39 -101 0 -54 38 -105 78 -105 62 0 102 -12 102 -31 0 -21 -24 -26
-142 -28 l-88 -1 0 165 0 165 116 0 c114 0 115 0 112 -22z"/>
</g>
</svg>
